<svg xmlns="http://www.w3.org/2000/svg" xmlns:xlink="http://www.w3.org/1999/xlink" width="44" height="44" viewBox="0 0 44 44"><defs><filter id="a" x="0" y="0" width="44" height="44" filterUnits="userSpaceOnUse"><feOffset input="SourceAlpha"/><feGaussianBlur stdDeviation="2" result="b"/><feFlood flood-opacity="0.502"/><feComposite operator="in" in2="b"/><feComposite in="SourceGraphic"/></filter></defs><g transform="translate(6 6)"><g transform="matrix(1, 0, 0, 1, -6, -6)" filter="url(#a)"><circle cx="16" cy="16" r="16" transform="translate(6 6)" fill="#db1e3d"/></g><g transform="translate(4.667 15.373) rotate(-42)"><path d="M14.76,1.383,14.685,1.3a3.982,3.982,0,0,0-5.938.054L1.183,9.637A4.6,4.6,0,0,0,0,12.413a3.726,3.726,0,0,0,.957,2.526,3.11,3.11,0,0,0,2.311,1.048h0a3.111,3.111,0,0,0,2.31-1.049l6.529-7.148a2.66,2.66,0,0,0,.672-1.868,2.621,2.621,0,0,0-.672-1.69,2.161,2.161,0,0,0-3.25,0l-5,5.474a.786.786,0,0,0-.2.534.719.719,0,0,0,.685.749.653.653,0,0,0,.483-.219h0l5.005-5.48a.895.895,0,0,1,1.314,0,1.085,1.085,0,0,1,0,1.438L4.61,13.879a1.809,1.809,0,0,1-1.342.61h0a1.809,1.809,0,0,1-1.343-.61,2.163,2.163,0,0,1-.555-1.466A3.131,3.131,0,0,1,2.152,10.7L9.715,2.416a2.7,2.7,0,0,1,4.024-.03l.073.08a3.358,3.358,0,0,1-.045,4.387l-6.26,6.853a.785.785,0,0,0-.2.533.719.719,0,0,0,.685.749.655.655,0,0,0,.483-.219h0l6.264-6.857A4.961,4.961,0,0,0,14.76,1.383Z" transform="translate(0 0.006)" fill="#fff"/></g></g></svg>