<svg xmlns="http://www.w3.org/2000/svg" width="37" height="41" viewBox="0 0 37 41">
    <symbol id="menu-icon" viewBox="0 0 37 41">
        <rect width="37" height="41" fill="rgba(0,0,0,0)"/>
        <g transform="translate(5.695 12.189)">
            <g transform="translate(0 0)">
                <path class="menu-icon__line" d="M25.067,0H.534A.565.565,0,0,0,0,.591a.565.565,0,0,0,.534.592H25.067A.565.565,0,0,0,25.6.591.565.565,0,0,0,25.067,0"/>
                <path class="menu-icon__line" d="M25.067,0H.534A.565.565,0,0,0,0,.591a.564.564,0,0,0,.534.591H25.067A.564.564,0,0,0,25.6.591.565.565,0,0,0,25.067,0"
                    transform="translate(0 8.274)"/>
                <path class="menu-icon__line" d="M25.067,0H.534A.565.565,0,0,0,0,.591a.564.564,0,0,0,.534.591H25.067A.564.564,0,0,0,25.6.591.565.565,0,0,0,25.067,0"
                    transform="translate(0 16.548)"/>
            </g>
        </g>
    </symbol>
</svg>

