<?xml version="1.0" standalone="no"?>
<!DOCTYPE svg PUBLIC "-//W3C//DTD SVG 20010904//EN"
 "http://www.w3.org/TR/2001/REC-SVG-20010904/DTD/svg10.dtd">
<svg version="1.0" xmlns="http://www.w3.org/2000/svg"
 width="501.000000pt" height="501.000000pt" viewBox="0 0 501.000000 501.000000"
 preserveAspectRatio="xMidYMid meet">
<metadata>
Created by potrace 1.11, written by Peter Selinger 2001-2013
</metadata>
<g transform="translate(0.000000,501.000000) scale(0.100000,-0.100000)"
fill="#000000" stroke="none">
<path d="M2308 4579 c-121 -13 -171 -21 -275 -43 -170 -36 -428 -139 -603
-242 -171 -100 -379 -275 -515 -434 -283 -330 -458 -748 -492 -1175 -11 -147
-5 -400 12 -465 2 -8 7 -35 10 -60 22 -160 90 -370 182 -559 198 -409 524
-741 933 -947 90 -45 270 -118 276 -111 2 2 -31 29 -74 59 -394 283 -523 609
-385 978 32 86 80 167 224 373 151 215 173 263 172 365 0 23 4 42 10 42 20 0
76 -69 86 -107 30 -110 7 -235 -90 -490 -129 -337 -172 -494 -173 -633 -2
-252 82 -402 331 -598 50 -39 71 -47 188 -68 140 -24 198 -29 375 -29 198 0
250 5 430 41 605 122 1140 530 1426 1086 78 154 151 352 178 488 8 40 25 133
30 165 24 140 24 466 1 585 -3 14 -7 41 -10 60 -15 108 -73 315 -123 435 -25
59 -124 256 -128 253 -1 -2 -4 -38 -5 -81 -1 -42 -5 -77 -9 -77 -4 0 -17 35
-29 78 -53 183 -125 283 -278 386 -40 27 -73 50 -73 52 0 5 57 -6 113 -22 26
-7 47 -11 47 -8 0 2 -38 43 -84 90 l-83 86 -49 -25 c-53 -27 -105 -43 -169
-52 -22 -4 -51 -8 -65 -11 -31 -5 -337 -6 -365 0 -11 2 -54 7 -95 11 -41 3
-82 8 -90 10 -8 2 -49 7 -90 10 -41 4 -82 8 -90 10 -14 2 -97 12 -173 21 -37
3 -98 12 -177 24 -82 12 -276 5 -351 -13 -36 -9 -96 -27 -134 -41 -37 -15 -72
-26 -77 -26 -14 0 15 42 56 82 171 165 332 231 566 232 181 1 305 -17 545 -79
72 -18 150 -36 175 -40 25 -4 56 -8 70 -10 70 -11 230 -18 350 -16 l55 1 -70
51 c-278 203 -588 324 -980 384 -62 10 -362 12 -437 4z m-238 -750 c0 -3 -22
-13 -49 -23 -27 -9 -57 -23 -66 -30 -15 -11 -9 -12 36 -6 62 8 242 5 314 -5
261 -36 500 -156 701 -350 117 -113 113 -125 -23 -57 -90 46 -194 80 -262 87
-74 7 -74 11 16 -93 146 -168 214 -321 238 -542 7 -63 7 -188 0 -246 -6 -48
-8 -63 -20 -158 -4 -27 -12 -67 -19 -90 l-12 -41 -16 30 c-8 17 -19 53 -23 80
-5 28 -9 55 -11 60 -1 6 -5 28 -8 50 -31 199 -76 353 -128 441 -18 30 -36 54
-41 54 -10 0 -26 -43 -19 -54 2 -5 6 -56 7 -115 8 -321 -117 -601 -358 -804
l-49 -40 6 34 c3 19 21 72 41 119 33 80 73 199 81 245 19 109 24 171 25 272 0
65 -2 125 -5 133 -3 8 -7 31 -10 50 -19 133 -124 410 -161 424 -12 4 -14 -7
-8 -77 14 -175 8 -285 -20 -379 -29 -93 -116 -228 -146 -228 -5 0 2 34 15 76
14 42 27 93 30 113 3 20 8 39 10 43 9 15 5 178 -5 195 -8 15 -10 13 -9 -13 1
-44 -58 -215 -93 -267 -33 -50 -82 -91 -132 -111 -52 -21 -116 -19 -217 7
-141 37 -248 52 -520 72 -128 10 -207 55 -289 168 -72 97 -67 147 27 261 82
100 67 124 -69 110 -50 -5 -92 -7 -95 -3 -6 11 39 44 91 67 91 40 644 212 667
208 13 -3 28 -5 33 -5 6 -1 32 -21 60 -46 27 -25 56 -46 65 -46 8 -1 26 -3 38
-4 28 -3 86 27 161 80 l52 38 -23 15 c-16 12 -50 17 -123 18 -167 4 -222 12
-255 41 -59 49 -33 115 66 163 55 27 184 59 298 73 99 13 206 16 206 6z m1155
-42 c59 -17 130 -50 164 -76 25 -19 25 -19 6 -47 -28 -44 -114 -132 -166 -169
-55 -41 -117 -58 -150 -41 -30 15 -68 71 -64 94 2 9 4 22 4 29 1 19 61 83 77
83 18 0 17 -4 -1 -40 -11 -22 -12 -35 -5 -56 10 -24 14 -26 50 -21 21 3 53 15
69 27 37 25 85 104 78 125 -12 29 -97 59 -257 89 -47 9 -58 14 -40 18 44 8
184 0 235 -15z m601 -22 c69 -34 143 -98 185 -161 25 -38 56 -121 63 -170 4
-22 8 -49 10 -61 4 -20 8 -88 21 -358 3 -55 7 -194 10 -309 6 -248 9 -279 40
-400 28 -111 72 -224 126 -325 48 -88 40 -105 -31 -64 -197 115 -329 286 -384
498 -28 112 -26 71 -41 620 -11 378 -18 447 -62 569 -14 39 -41 95 -59 124
-19 29 -34 59 -34 68 0 24 71 10 156 -31z m-301 -413 c110 -77 183 -232 200
-431 6 -65 3 -62 -55 90 -44 117 -84 188 -166 297 -60 79 -53 95 21 44z m-514
-134 c123 -114 157 -347 88 -591 -11 -39 -33 -46 -35 -11 -1 10 -5 60 -8 109
-4 50 -9 113 -11 141 -9 126 -30 210 -76 312 -40 88 -25 102 42 40z m446 -100
c92 -99 170 -267 208 -452 16 -79 12 -322 -8 -411 -47 -208 -126 -368 -261
-525 -21 -25 -93 -103 -160 -174 -158 -169 -169 -181 -294 -314 -215 -230
-371 -451 -418 -592 -10 -31 -9 -25 -18 -87 -4 -29 -11 -55 -16 -58 -11 -7
-58 102 -79 187 -47 182 -4 381 116 538 19 25 177 189 351 365 224 226 337
348 385 415 88 124 180 311 213 430 49 184 38 403 -31 585 -27 71 -38 125 -26
125 4 0 21 -15 38 -32z m-2317 -493 c30 -4 64 -9 74 -11 11 -2 54 -8 95 -14
115 -16 129 -19 174 -41 53 -25 83 -50 91 -75 10 -32 -5 -43 -284 -199 -72
-41 -93 -48 -141 -49 -50 -1 -62 3 -96 30 -54 44 -102 142 -110 224 -5 61 -3
68 22 98 26 31 73 52 105 47 8 -2 40 -6 70 -10z m2105 -153 c-13 -125 -100
-332 -187 -448 -69 -92 -258 -279 -388 -384 -161 -130 -221 -183 -330 -290
-134 -133 -194 -257 -204 -425 -3 -41 15 -170 33 -240 20 -78 11 -79 -79 -9
-140 108 -236 253 -280 420 -35 135 -21 261 56 492 45 136 72 195 84 187 3 -2
3 -36 -1 -76 -15 -140 1 -377 28 -422 9 -14 32 14 58 71 68 148 147 220 495
454 157 105 314 215 350 243 131 104 248 253 315 400 36 80 57 91 50 27z m608
-340 c42 -144 41 -240 -1 -366 -30 -89 -82 -165 -182 -266 -113 -115 -253
-211 -408 -281 -194 -86 -209 -77 -64 38 111 88 135 110 283 251 59 57 126
127 148 156 89 115 146 271 157 430 4 50 8 98 10 106 1 8 3 17 3 19 1 2 9 -3
19 -13 11 -9 26 -42 35 -74z"/>
</g>
</svg>
