<svg xmlns="http://www.w3.org/2000/svg">
    <symbol id="menu-cross" viewBox="0 0 37 41">
        <!-- <rect id="Menu_background" data-name="Menu background" class="cls-1" width="37" height="41"/> -->
        <g id="Menu-2" data-name="Menu" transform="translate(9 9.973)">
            <g id="Burger_Menu" data-name="Burger Menu">
            <path id="Fill_3" data-name="Fill 3" class="cls-2" d="M26.422,1.152.563,2.479a.638.638,0,0,0-.592.591A.5.5,0,0,0,.505,3.6L26.364,2.276a.636.636,0,0,0,.591-.591.5.5,0,0,0-.533-.533" transform="translate(-1.773 18.286) rotate(-45)"/>
            <path id="Fill_4" data-name="Fill 4" class="cls-2" d="M26.422,1.355.563.029A.5.5,0,0,0,.029.562a.637.637,0,0,0,.592.591L26.48,2.479a.5.5,0,0,0,.533-.533.637.637,0,0,0-.591-.591" transform="translate(0.821 0.043) rotate(45)"/>
            </g>
        </g>
    </symbol>
</svg>
