<svg xmlns="http://www.w3.org/2000/svg" xmlns:xlink="http://www.w3.org/1999/xlink" viewBox="0 0 154.772 18.222">
  <defs>
    <style>
      .cls-1 {
        fill: none;
      }

      .cls-2 {
        fill: #fff;
      }

      .cls-3 {
        clip-path: url(#clip-path);
      }

      .cls-4 {
        fill: #da213e;
      }

      .cls-5 {
        clip-path: url(#clip-path-2);
      }
    </style>
    <clipPath id="clip-path">
      <path id="Clip_14" data-name="Clip 14" class="cls-1" d="M0,0H13.37V18.222H0Z" transform="translate(0.185 0.485)"/>
    </clipPath>
    <clipPath id="clip-path-2">
      <path id="Clip_23" data-name="Clip 23" class="cls-1" d="M0,0H9.422V11.654H0Z" transform="translate(1.039 0.125)"/>
    </clipPath>
  </defs>
  <g id="Group_26" data-name="Group 26" transform="translate(0 -1.336)">
    <path id="Fill_1" data-name="Fill 1" class="cls-2" d="M0,0V17.482H12.312V14.5H3.4V0Z" transform="translate(0 1.829)"/>
    <path id="Fill_2" data-name="Fill 2" class="cls-2" d="M3.3,17.976H0V5.073H3.3v12.9Zm0-14.7H0V0H3.3V3.274Z" transform="translate(14.061 1.336)"/>
    <g id="Group_25" data-name="Group 25" transform="translate(18.707 0.851)">
      <path id="Fill_3" data-name="Fill 3" class="cls-2" d="M6.772,13.371a7.126,7.126,0,0,1-2.832-.541,6.4,6.4,0,0,1-2.128-1.466A6.461,6.461,0,0,1,.469,9.235,6.944,6.944,0,0,1,0,6.7,7.01,7.01,0,0,1,.469,4.138a6.48,6.48,0,0,1,1.342-2.13A6.377,6.377,0,0,1,3.939.543,7.125,7.125,0,0,1,6.772,0a7.035,7.035,0,0,1,2.82.543,6.441,6.441,0,0,1,2.118,1.465,6.552,6.552,0,0,1,1.342,2.13A7.064,7.064,0,0,1,13.518,6.7a7,7,0,0,1-.467,2.536,6.65,6.65,0,0,1-1.329,2.129A6.276,6.276,0,0,1,9.6,12.83,7.111,7.111,0,0,1,6.772,13.371Zm0-10.564a3.021,3.021,0,0,0-1.329.3,3.34,3.34,0,0,0-1.072.813,3.841,3.841,0,0,0-.715,1.23A4.558,4.558,0,0,0,3.4,6.7a4.528,4.528,0,0,0,.257,1.563,3.879,3.879,0,0,0,.715,1.22,3.2,3.2,0,0,0,1.072.8,3.26,3.26,0,0,0,2.659,0,3.2,3.2,0,0,0,1.07-.8,3.816,3.816,0,0,0,.715-1.232,4.6,4.6,0,0,0,.258-1.575,4.537,4.537,0,0,0-.258-1.552,3.816,3.816,0,0,0-.715-1.232,3.244,3.244,0,0,0-1.07-.8A3.182,3.182,0,0,0,6.772,2.807Z" transform="translate(0.819 5.335)"/>
      <path id="Fill_5" data-name="Fill 5" class="cls-2" d="M11.991,13.124h-3.3V5.886A3.769,3.769,0,0,0,8.15,3.62a1.779,1.779,0,0,0-1.5-.714,2.827,2.827,0,0,0-1.009.2,3.686,3.686,0,0,0-.973.555,4.456,4.456,0,0,0-.826.85A3.348,3.348,0,0,0,3.3,5.589v7.535H0V.222H2.978V2.61A4.892,4.892,0,0,1,5.047.689,6.654,6.654,0,0,1,8.1,0a3.9,3.9,0,0,1,1.971.444A3.21,3.21,0,0,1,11.252,1.6a4.841,4.841,0,0,1,.579,1.625,10.647,10.647,0,0,1,.16,1.847Z" transform="translate(16.554 5.336)"/>
      <path id="Fill_7" data-name="Fill 7" class="cls-2" d="M13.172,15.636A6.683,6.683,0,0,1,8.3,17.729a7.7,7.7,0,0,1-3.239-.689,8.188,8.188,0,0,1-2.634-1.895A9.027,9.027,0,0,1,.652,12.3,9.438,9.438,0,0,1,0,8.767,8.879,8.879,0,0,1,2.449,2.6,8.621,8.621,0,0,1,5.146.7,8.069,8.069,0,0,1,8.52,0a8.184,8.184,0,0,1,4.222,1.036,6.687,6.687,0,0,1,2.647,2.782L12.853,5.688a4.719,4.719,0,0,0-1.86-1.995,5.119,5.119,0,0,0-2.6-.688,4.452,4.452,0,0,0-2.031.466A4.764,4.764,0,0,0,4.789,4.753a6.014,6.014,0,0,0-1.01,1.872,6.965,6.965,0,0,0-.357,2.239,6.6,6.6,0,0,0,.394,2.3A5.8,5.8,0,0,0,4.9,13.025a5.058,5.058,0,0,0,1.637,1.245,4.688,4.688,0,0,0,2.055.454,5.958,5.958,0,0,0,4.581-2.388V11.105H9.651V8.62H15.98v8.986H13.172Z" transform="translate(30.712 0.854)"/>
      <path id="Fill_9" data-name="Fill 9" class="cls-2" d="M0,0H3.3V13.838a1.624,1.624,0,0,0,.345,1.109,1.237,1.237,0,0,0,.983.394,2.482,2.482,0,0,0,.653-.1,4.316,4.316,0,0,0,.676-.247L6.4,17.508A6.416,6.416,0,0,1,4.85,18a8.452,8.452,0,0,1-1.6.172,3.3,3.3,0,0,1-2.4-.826A3.123,3.123,0,0,1,0,14.995Z" transform="translate(49.252 0.485)"/>
      <path id="Fill_11" data-name="Fill 11" class="cls-2" d="M6.772,13.371A7.124,7.124,0,0,1,3.94,12.83a6.393,6.393,0,0,1-2.129-1.466A6.461,6.461,0,0,1,.469,9.235a7.159,7.159,0,0,1,0-5.1,6.48,6.48,0,0,1,1.342-2.13A6.373,6.373,0,0,1,3.94.543,7.122,7.122,0,0,1,6.772,0a7.035,7.035,0,0,1,2.82.543,6.418,6.418,0,0,1,2.118,1.465,6.57,6.57,0,0,1,1.343,2.13A7.064,7.064,0,0,1,13.518,6.7a7,7,0,0,1-.466,2.536,6.641,6.641,0,0,1-1.33,2.129A6.276,6.276,0,0,1,9.6,12.83,7.111,7.111,0,0,1,6.772,13.371Zm0-10.564a3.021,3.021,0,0,0-1.329.3,3.337,3.337,0,0,0-1.07.813,3.777,3.777,0,0,0-.715,1.23A4.536,4.536,0,0,0,3.4,6.7a4.506,4.506,0,0,0,.259,1.563,3.812,3.812,0,0,0,.715,1.22,3.2,3.2,0,0,0,1.07.8,3.26,3.26,0,0,0,2.659,0,3.217,3.217,0,0,0,1.071-.8,3.815,3.815,0,0,0,.714-1.232,4.6,4.6,0,0,0,.259-1.575,4.536,4.536,0,0,0-.259-1.552,3.816,3.816,0,0,0-.714-1.232,3.257,3.257,0,0,0-1.071-.8A3.182,3.182,0,0,0,6.772,2.807Z" transform="translate(56.269 5.335)"/>
      <g id="Group_15" data-name="Group 15" transform="translate(71.819)">
        <path id="Clip_14-2" data-name="Clip 14" class="cls-1" d="M0,0H13.37V18.222H0Z" transform="translate(0.185 0.485)"/>
        <g id="Group_15-2" data-name="Group 15" class="cls-3">
          <path id="Fill_13" data-name="Fill 13" class="cls-2" d="M7.337,18.222A5.215,5.215,0,0,1,4.7,17.556a4.848,4.848,0,0,1-1.822-1.821v2.24H0V0H3.3V7.339A5.008,5.008,0,0,1,5.108,5.5,5.152,5.152,0,0,1,7.731,4.85a4.888,4.888,0,0,1,2.29.543,5.787,5.787,0,0,1,1.786,1.453,6.621,6.621,0,0,1,1.156,2.143,8.207,8.207,0,0,1,.407,2.585,7.376,7.376,0,0,1-.456,2.611,6.563,6.563,0,0,1-1.268,2.1A5.975,5.975,0,0,1,9.724,17.7,5.592,5.592,0,0,1,7.337,18.222ZM6.624,7.658a3.039,3.039,0,0,0-1.984.726A4.887,4.887,0,0,0,3.3,10.17v3.077a2.8,2.8,0,0,0,.5.887,3.678,3.678,0,0,0,.752.678,3.639,3.639,0,0,0,.912.444,3.141,3.141,0,0,0,.959.158,3.428,3.428,0,0,0,1.453-.307,3.516,3.516,0,0,0,1.134-.826,3.778,3.778,0,0,0,.725-1.205A4.225,4.225,0,0,0,10,11.6a4.629,4.629,0,0,0-.246-1.5,3.923,3.923,0,0,0-.7-1.255,3.52,3.52,0,0,0-1.069-.862A2.9,2.9,0,0,0,6.624,7.658Z" transform="translate(0.185 0.485)"/>
        </g>
      </g>
      <path id="Fill_16" data-name="Fill 16" class="cls-2" d="M4.406,13.371a4.926,4.926,0,0,1-1.747-.307,4.2,4.2,0,0,1-1.4-.862,4.045,4.045,0,0,1-.925-1.293A3.927,3.927,0,0,1,0,9.284,3.593,3.593,0,0,1,.406,7.6,3.873,3.873,0,0,1,1.539,6.28a5.645,5.645,0,0,1,1.736-.85,7.571,7.571,0,0,1,2.216-.308,9.525,9.525,0,0,1,1.686.148,6.822,6.822,0,0,1,1.466.419V4.949A2.6,2.6,0,0,0,7.916,2.98a3.041,3.041,0,0,0-2.154-.688,5.72,5.72,0,0,0-2.021.369A9.47,9.47,0,0,0,1.724,3.744L.714,1.651A9.564,9.564,0,0,1,6.081,0,6.318,6.318,0,0,1,10.4,1.367a5.028,5.028,0,0,1,1.54,3.952V9.333a1.166,1.166,0,0,0,.184.739.814.814,0,0,0,.6.247v2.807a7.352,7.352,0,0,1-1.453.172,2.2,2.2,0,0,1-1.44-.419,1.8,1.8,0,0,1-.627-1.108l-.075-.713a5.726,5.726,0,0,1-2.092,1.723A6.03,6.03,0,0,1,4.406,13.371Zm1.625-6.4a3.535,3.535,0,0,0-2.093.579,1.744,1.744,0,0,0-.814,1.464A1.772,1.772,0,0,0,3.767,10.4a2.335,2.335,0,0,0,1.576.554,4.322,4.322,0,0,0,1.589-.3A2.9,2.9,0,0,0,8.1,9.875a1.194,1.194,0,0,0,.543-.936V7.461A8.342,8.342,0,0,0,7.363,7.1,7.036,7.036,0,0,0,6.032,6.97Z" transform="translate(86.729 5.335)"/>
      <path id="Fill_18" data-name="Fill 18" class="cls-2" d="M0,0H3.3V13.838a1.624,1.624,0,0,0,.345,1.109,1.24,1.24,0,0,0,.985.394,2.48,2.48,0,0,0,.652-.1,4.382,4.382,0,0,0,.677-.247L6.4,17.508A6.435,6.435,0,0,1,4.85,18a8.476,8.476,0,0,1-1.6.172,3.294,3.294,0,0,1-2.4-.826A3.123,3.123,0,0,1,0,14.995Z" transform="translate(101.724 0.485)"/>
      <path id="Fill_20" data-name="Fill 20" class="cls-4" d="M9.8,0V11.654H7.551V6.681H2.265v4.973H0V0H2.265V4.71H7.551V0Z" transform="translate(114.413 6.806)"/>
      <g id="Group_24" data-name="Group 24" transform="translate(125.603 6.681)">
        <path id="Clip_23-2" data-name="Clip 23" class="cls-1" d="M0,0H9.422V11.654H0Z" transform="translate(1.039 0.125)"/>
        <g id="Group_24-2" data-name="Group 24" class="cls-5">
          <path id="Fill_22" data-name="Fill 22" class="cls-4" d="M2.265,11.655H0V0H5.155A3.319,3.319,0,0,1,6.639.337a3.89,3.89,0,0,1,1.174.886,4.2,4.2,0,0,1,.771,1.248,3.783,3.783,0,0,1,.279,1.4A3.88,3.88,0,0,1,8.3,5.934,3.255,3.255,0,0,1,6.763,7.272l2.659,4.381-2.544,0L4.5,7.747H2.265v3.907Zm0-9.67V5.762H5.1a1.192,1.192,0,0,0,.584-.148,1.485,1.485,0,0,0,.468-.4,2.022,2.022,0,0,0,.311-.6,2.358,2.358,0,0,0,.115-.739,2.124,2.124,0,0,0-.131-.755,2.039,2.039,0,0,0-.353-.6,1.639,1.639,0,0,0-.509-.393,1.3,1.3,0,0,0-.583-.14Z" transform="translate(1.039 0.125)"/>
        </g>
      </g>
    </g>
  </g>
</svg>
