<?xml version="1.0" encoding="utf-8"?>
<!-- Generator: Adobe Illustrator 23.0.1, SVG Export Plug-In . SVG Version: 6.00 Build 0)  -->
<svg version="1.1" id="Layer_1" xmlns="http://www.w3.org/2000/svg" xmlns:xlink="http://www.w3.org/1999/xlink" x="0px" y="0px"
	 viewBox="0 0 120 30" style="enable-background:new 0 0 120 30;" xml:space="preserve">
<style type="text/css">
	.st0{fill:#353331;}
	.st1{fill:#DB213E;}
</style>
<title>Logo_Typeface</title>
<g>
	<path class="st0" d="M0,20.8V9.3h2.2v9.6h5.9v2L0,20.8z"/>
	<path class="st0" d="M9.3,11.2V9h2.2v2.2H9.3z M9.3,20.8v-8.5h2.2v8.5H9.3z"/>
	<path class="st0" d="M17.4,21c-0.6,0-1.3-0.1-1.9-0.4c-0.5-0.2-1-0.6-1.4-1c-0.4-0.4-0.7-0.9-0.9-1.4c-0.4-1.1-0.4-2.3,0-3.4
		c0.2-0.5,0.5-1,0.9-1.4c0.4-0.4,0.9-0.8,1.4-1c0.6-0.2,1.2-0.4,1.9-0.4c0.6,0,1.3,0.1,1.9,0.4c0.5,0.2,1,0.6,1.4,1
		c0.4,0.4,0.7,0.9,0.9,1.4c0.4,1.1,0.4,2.3,0,3.4c-0.2,0.5-0.5,1-0.9,1.4c-0.4,0.4-0.9,0.8-1.4,1C18.6,20.9,18,21,17.4,21z
		 M15.1,16.6c0,0.3,0.1,0.7,0.2,1c0.1,0.3,0.3,0.6,0.5,0.8c0.2,0.2,0.4,0.4,0.7,0.5c0.6,0.3,1.2,0.3,1.8,0c0.3-0.1,0.5-0.3,0.7-0.5
		c0.2-0.2,0.4-0.5,0.5-0.8c0.1-0.3,0.2-0.7,0.2-1c0-0.3-0.1-0.7-0.2-1c-0.1-0.3-0.3-0.6-0.5-0.8c-0.2-0.2-0.4-0.4-0.7-0.5
		c-0.3-0.1-0.6-0.2-0.9-0.2c-0.3,0-0.6,0.1-0.9,0.2c-0.3,0.1-0.5,0.3-0.7,0.5c-0.2,0.2-0.4,0.5-0.5,0.8
		C15.2,15.9,15.1,16.3,15.1,16.6z"/>
	<path class="st0" d="M31.2,20.8H29v-4.8c0-0.5-0.1-1-0.3-1.5c-0.2-0.3-0.6-0.5-1-0.5c-0.2,0-0.5,0-0.7,0.1
		c-0.2,0.1-0.4,0.2-0.6,0.4c-0.2,0.2-0.4,0.4-0.5,0.6c-0.2,0.2-0.3,0.5-0.4,0.7v5h-2.2v-8.5h2V14c0.3-0.5,0.8-1,1.4-1.3
		c0.6-0.3,1.3-0.5,2-0.5c0.5,0,0.9,0.1,1.3,0.3c0.3,0.2,0.6,0.4,0.8,0.8c0.2,0.3,0.3,0.7,0.4,1.1c0.1,0.4,0.1,0.8,0.1,1.2L31.2,20.8
		z"/>
	<path class="st0" d="M41.3,19.5c-0.8,0.9-2,1.4-3.2,1.4c-0.7,0-1.5-0.2-2.1-0.5c-0.7-0.3-1.2-0.7-1.7-1.2c-1-1.1-1.6-2.6-1.6-4.2
		c0-0.8,0.1-1.5,0.4-2.2c0.3-0.7,0.7-1.3,1.2-1.8c0.5-0.5,1.1-1,1.8-1.3c0.7-0.3,1.5-0.5,2.2-0.5c1,0,1.9,0.2,2.8,0.7
		c0.8,0.4,1.4,1.1,1.8,1.8L41,13c-0.3-0.5-0.7-1-1.2-1.3c-0.5-0.3-1.1-0.5-1.7-0.5c-0.5,0-0.9,0.1-1.3,0.3c-0.4,0.2-0.7,0.5-1,0.8
		c-0.3,0.4-0.5,0.8-0.7,1.2c-0.2,0.5-0.2,1-0.2,1.5c0,0.5,0.1,1,0.3,1.5c0.2,0.4,0.4,0.9,0.7,1.2c0.3,0.3,0.7,0.6,1.1,0.8
		c0.4,0.2,0.9,0.3,1.3,0.3c1.2,0,2.3-0.6,3-1.6v-0.8h-2.3v-1.6h4.2v5.9h-1.9V19.5z"/>
	<path class="st0" d="M44.8,9H47v9.1c0,0.3,0.1,0.5,0.2,0.7c0.2,0.2,0.4,0.3,0.7,0.3c0.1,0,0.3,0,0.4-0.1c0.2,0,0.3-0.1,0.5-0.2
		l0.2,1.6c-0.3,0.2-0.7,0.3-1,0.3c-0.3,0.1-0.7,0.1-1.1,0.1c-0.6,0-1.1-0.2-1.6-0.5c-0.4-0.4-0.6-1-0.6-1.5L44.8,9z"/>
	<path class="st0" d="M53.9,21c-0.6,0-1.3-0.1-1.9-0.4c-0.5-0.2-1-0.6-1.4-1c-0.4-0.4-0.7-0.9-0.9-1.4c-0.4-1.1-0.4-2.3,0-3.4
		c0.2-0.5,0.5-1,0.9-1.4c0.4-0.4,0.9-0.8,1.4-1c1.2-0.5,2.5-0.5,3.7,0c1.1,0.5,1.9,1.4,2.3,2.4c0.4,1.1,0.4,2.3,0,3.4
		c-0.2,0.5-0.5,1-0.9,1.4c-0.4,0.4-0.9,0.8-1.4,1C55.1,20.9,54.5,21,53.9,21z M51.6,16.6c0,0.3,0.1,0.7,0.2,1
		c0.1,0.3,0.3,0.6,0.5,0.8c0.2,0.2,0.4,0.4,0.7,0.6c0.6,0.3,1.2,0.3,1.8,0c0.3-0.1,0.5-0.3,0.7-0.5c0.2-0.2,0.4-0.5,0.5-0.8
		c0.1-0.3,0.2-0.7,0.2-1c0-0.3-0.1-0.7-0.2-1c-0.1-0.3-0.3-0.6-0.5-0.8c-0.2-0.2-0.4-0.4-0.7-0.5c-0.3-0.1-0.6-0.2-0.9-0.2
		c-0.3,0-0.6,0.1-0.9,0.2c-0.3,0.1-0.5,0.3-0.7,0.5c-0.2,0.2-0.4,0.5-0.5,0.8C51.7,16,51.7,16.3,51.6,16.6z"/>
	<path class="st0" d="M64.6,21c-0.6,0-1.2-0.1-1.7-0.4c-0.5-0.3-0.9-0.7-1.2-1.2v1.5h-1.9V9H62v4.8c0.3-0.5,0.7-0.9,1.2-1.2
		c0.5-0.3,1.1-0.4,1.7-0.4c0.5,0,1,0.1,1.5,0.4c0.5,0.2,0.9,0.6,1.2,1c0.3,0.4,0.6,0.9,0.8,1.4c0.2,0.5,0.3,1.1,0.3,1.7
		c0,0.6-0.1,1.2-0.3,1.7c-0.2,0.5-0.5,1-0.8,1.4c-0.4,0.4-0.8,0.7-1.3,0.9C65.7,20.9,65.2,21,64.6,21z M64,19.1c0.3,0,0.7,0,1-0.1
		c0.3-0.1,0.5-0.3,0.8-0.5c0.2-0.2,0.4-0.5,0.5-0.8c0.1-0.3,0.2-0.7,0.2-1c0-0.3-0.1-0.7-0.2-1c-0.1-0.3-0.3-0.6-0.5-0.8
		c-0.2-0.2-0.4-0.4-0.7-0.6c-0.3-0.1-0.6-0.2-0.9-0.2c-0.5,0-0.9,0.2-1.3,0.5c-0.4,0.3-0.7,0.7-0.9,1.2v2c0.1,0.2,0.2,0.4,0.3,0.6
		c0.1,0.2,0.3,0.3,0.5,0.4c0.2,0.1,0.4,0.2,0.6,0.3C63.6,19.1,63.8,19.1,64,19.1z"/>
	<path class="st0" d="M72.4,21c-0.4,0-0.8-0.1-1.2-0.2c-0.3-0.1-0.7-0.3-0.9-0.6c-0.3-0.2-0.5-0.5-0.6-0.9c-0.2-0.3-0.2-0.7-0.2-1.1
		c0-0.4,0.1-0.8,0.3-1.1c0.2-0.3,0.4-0.6,0.8-0.9c0.3-0.3,0.7-0.4,1.1-0.6c0.5-0.1,1-0.2,1.5-0.2c0.4,0,0.7,0,1.1,0.1
		c0.3,0.1,0.7,0.2,1,0.3v-0.5c0-0.5-0.1-0.9-0.5-1.3c-0.4-0.3-0.9-0.5-1.4-0.5c-0.5,0-0.9,0.1-1.3,0.2c-0.5,0.2-0.9,0.4-1.3,0.7
		L70,13.3c1-0.7,2.3-1.1,3.5-1.1c1-0.1,2,0.3,2.8,0.9c0.7,0.7,1.1,1.6,1,2.6v2.6c0,0.2,0,0.3,0.1,0.5c0.1,0.1,0.3,0.2,0.4,0.2v1.9
		c-0.3,0.1-0.7,0.1-1,0.1c-0.4,0-0.7-0.1-1-0.3c-0.2-0.2-0.4-0.4-0.4-0.7l-0.1-0.5c-0.4,0.5-0.8,0.9-1.4,1.1
		C73.5,20.9,72.9,21,72.4,21z M73,19.4c0.3,0,0.7-0.1,1-0.2c0.3-0.1,0.6-0.3,0.8-0.5c0.2-0.1,0.3-0.4,0.3-0.6v-1
		c-0.3-0.1-0.6-0.2-0.8-0.2c-0.3-0.1-0.6-0.1-0.9-0.1c-0.5,0-1,0.1-1.4,0.4c-0.3,0.2-0.5,0.6-0.5,1c0,0.4,0.1,0.7,0.4,0.9
		C72.2,19.3,72.6,19.4,73,19.4z"/>
	<path class="st0" d="M79.3,9h2.2v9.1c0,0.3,0.1,0.5,0.2,0.7c0.2,0.2,0.4,0.3,0.7,0.3c0.1,0,0.3,0,0.4-0.1l0.4-0.2l0.3,1.6
		c-0.3,0.2-0.7,0.3-1,0.3c-0.3,0.1-0.7,0.1-1.1,0.1c-0.6,0-1.1-0.2-1.6-0.5c-0.4-0.4-0.6-1-0.6-1.5L79.3,9z"/>
	<path class="st1" d="M94.2,13.2v7.7h-1.5v-3.3h-3.5v3.3h-1.5v-7.7h1.5v3.1h3.5v-3.1H94.2z"/>
	<path class="st1" d="M95.8,20.8v-7.7h3.4c0.3,0,0.7,0.1,1,0.2c0.3,0.1,0.6,0.3,0.8,0.6c0.2,0.2,0.4,0.5,0.5,0.8
		c0.1,0.3,0.2,0.6,0.2,0.9c0,0.5-0.1,1-0.4,1.4c-0.2,0.4-0.6,0.7-1,0.9l1.8,2.9h-1.7l-1.6-2.6h-1.5v2.6H95.8z M97.2,17h1.9
		c0.1,0,0.3,0,0.4-0.1c0.1-0.1,0.2-0.2,0.3-0.3c0.1-0.1,0.2-0.2,0.2-0.4c0.1-0.3,0.1-0.7,0-1c-0.1-0.1-0.1-0.3-0.2-0.4
		c-0.1-0.1-0.2-0.2-0.3-0.3c-0.1-0.1-0.3-0.1-0.4-0.1h-1.8L97.2,17z"/>
</g>
</svg>
